<svg width="642" height="216" viewBox="0 0 642 216" fill="none" xmlns="http://www.w3.org/2000/svg">
<path d="M137.504 196.392C132.442 193.86 128.127 191.931 124.614 188.55C121.431 185.488 118.089 182.591 114.84 179.601C111.168 176.221 107.753 172.595 105.14 168.319C100.627 160.935 96.1866 153.497 91.7266 146.079C91.1576 145.132 90.6811 144.124 90.0525 143.222C88.9938 141.711 87.6703 141.605 86.4065 143.004C84.4346 145.191 82.6016 147.505 80.643 149.712C78.6843 151.913 76.8844 154.339 74.5949 156.135C70.6246 159.251 67.3889 163.003 64.4045 166.967C59.7792 173.112 53.9693 177.851 47.6169 182.008C46.2405 182.909 44.7583 183.771 43.2033 184.261C39.769 185.355 36.9633 187.357 34.3826 189.777C29.6779 194.185 24.9665 198.593 20.2617 203.001C19.7257 203.505 19.2691 204.115 18.6802 204.546C16.1723 206.395 13.5519 208.112 11.1168 210.048C8.68835 211.983 6.42529 214.124 4.28134 216C1.66096 215.649 0.873525 213.886 0.191961 212.222C-0.119044 211.473 -0.0197869 210.333 0.330921 209.583C0.95293 208.264 1.87933 207.084 2.73955 205.891C7.50388 199.315 11.8778 192.501 15.6496 185.296C16.7612 183.174 18.0847 181.166 19.236 179.071C19.8382 177.971 20.2948 176.791 20.8639 175.558C19.6463 174.471 18.6008 173.536 17.3766 172.442C18.0516 171.375 18.5346 170.394 19.2162 169.579C24.9069 162.738 29.4992 155.293 32.9401 147.021C36.7582 137.846 41.2314 128.937 45.3869 119.902C48.1529 113.883 50.7799 107.805 53.6385 101.832C55.1803 98.6038 55.617 97.2913 52.0967 94.0896C48.9734 91.2525 45.5126 88.7534 42.0519 86.3273C35.8715 81.9987 29.6646 77.6899 22.6703 74.7003C21.519 74.2098 20.2749 73.4806 19.5603 72.4996C16.8208 68.7543 12.6785 67.8064 8.62879 66.7192C6.33265 66.1028 3.91079 65.9569 1.56832 65.4929C1.13821 65.4067 0.436795 64.6577 0.5162 64.4389C0.714714 63.849 1.19115 63.027 1.69405 62.9143C4.90335 62.2183 8.11266 61.1046 11.4477 62.4238C12.9365 63.0137 14.3129 62.6558 15.6099 61.7344C19.3221 59.0961 23.5967 59.0563 27.8185 59.4739C32.2056 59.9048 36.4869 60.9787 40.6623 62.4834C43.6003 63.544 46.6508 64.2798 49.6616 65.135C53.9032 66.3414 58.1514 67.5147 62.3863 68.7344C64.3648 69.3045 65.5493 68.7609 66.2772 66.8386C66.3434 66.6662 66.3698 66.4806 66.4228 66.3016C67.8719 61.1709 69.2814 56.0203 70.7901 50.9029C72.2591 45.918 72.9009 40.8205 73.1656 35.65C73.5097 29.0079 74.9522 22.5448 76.6462 16.1414C77.0035 14.7957 76.9771 13.5893 76.3683 12.4027C75.4022 10.5002 74.9456 8.53149 76.0838 6.60251C77.5859 4.05041 79.2203 1.61101 82.3369 0.682973C86.6182 -0.58976 90.7473 -0.0859701 94.7242 1.68392C98.9459 3.55988 102.976 5.85345 106.377 9.00214C111.915 14.1262 117.275 19.4558 122.781 24.6196C124.514 26.2503 126.414 27.7219 128.346 29.114C130.582 30.7314 132.984 32.1168 135.228 33.721C145.219 40.8669 147.039 54.3764 139.171 63.902C135.651 68.1577 131.82 72.1482 128.081 76.2183C126.089 78.3926 124.124 80.6132 121.921 82.5621C117.295 86.6455 115.396 92.2667 113.06 97.6559C112.485 98.9883 112.782 100.195 113.782 101.202C114.688 102.117 115.562 103.092 116.587 103.854C127.287 111.848 136.664 121.175 144.584 131.94C147.754 136.249 150.559 140.73 152.717 145.688C156.217 153.742 155.873 161.816 153.762 170.036C153.405 171.428 152.432 172.25 151.254 172.8C148.925 173.887 147.688 175.816 146.609 178.044C145.167 181.02 143.552 183.923 141.878 186.78C140.21 189.631 138.152 192.223 137.504 196.392Z" fill="#D43D27"/>
<path d="M417.594 82.5354C414.02 83.6755 411.089 85.1604 408.105 86.506C402.698 88.9388 397.041 90.4767 391.185 91.2589C384.713 92.1273 379.234 89.9862 374.635 85.4587C373.59 84.4312 372.551 83.3507 371.704 82.1575C367.019 75.542 362.347 68.9198 357.781 62.2247C356.762 60.7332 356.26 58.897 355.399 57.2796C353.785 54.237 354.744 51.5457 356.458 48.9936C358.734 45.593 362.016 43.5049 365.993 42.9746C369.428 42.5172 373.001 42.2521 376.415 42.663C386.48 43.8695 396.558 44.7312 406.689 44.9765C408.713 45.0229 410.738 45.0826 412.756 45.2682C416.469 45.6062 420.022 46.415 422.953 49.0002C423.47 49.451 424.27 49.5769 425.289 50.0011C426.461 48.9206 427.671 47.8468 428.823 46.7133C430.609 44.9566 432.7 43.8165 435.222 43.896C440.356 44.0551 445.498 44.3269 450.626 44.6318C452.797 44.7578 454.544 45.9907 455.662 47.7009C458.097 51.4396 460.936 54.7275 464.562 57.3525C465.085 57.7303 465.29 58.5523 465.779 59.4074C462.57 62.6224 462.074 66.8185 461.095 70.9217C459.937 75.7475 458.573 80.5733 456.721 85.1604C452.115 96.5885 447.999 108.268 441.462 118.822C439.139 122.573 436.572 126.166 434.163 129.865C433.594 130.734 433.21 131.721 432.687 132.755C435.652 134.605 438.735 134.386 441.521 134.108C448.608 133.392 455.827 134.379 462.802 132.331C465.25 131.609 467.771 131.138 470.491 130.495C472.615 132.126 475.255 133.491 475.824 137.124C474.838 137.462 474.044 137.906 473.211 137.999C466.401 138.781 459.844 140.425 453.531 143.163C442.05 148.128 430.437 152.788 419.043 157.932C411.34 161.412 403.969 165.608 396.359 169.3C390.735 172.031 385.018 174.537 378.844 175.922C373.391 177.148 368.382 176.028 364.306 172.654C357.497 167.02 351.237 160.742 346.208 153.371C345.381 152.158 344.627 150.872 344.044 149.533C340.895 142.261 344.865 135.002 352.673 133.716C355.446 133.259 358.178 133.471 360.792 134.611C361.13 134.757 361.441 134.956 361.772 135.128C365.702 137.15 369.752 137.468 374.093 136.54C378.936 135.513 383.86 134.79 388.776 134.2C392.971 133.697 397.206 133.564 401.421 133.299C402.52 133.233 403.631 133.312 404.737 133.279C408.588 133.153 409.018 132.735 409.289 128.732C409.984 118.709 412.657 109.143 416.469 99.936C418.725 94.4208 419.387 89.025 417.594 82.5354Z" fill="#D43D27"/>
<path d="M642 83.1452C640.081 84.4644 639.148 85.346 638.043 85.81C635.846 86.738 633.563 87.4738 631.294 88.2229C627.489 89.4824 627.482 89.4625 625.821 93.685C623.042 95.8659 618.714 95.2097 616.246 98.1794C616.961 99.9824 618.324 99.8565 619.568 99.883C622.142 99.936 624.716 99.8432 627.277 99.989C627.833 100.022 628.64 100.718 628.806 101.268C628.971 101.832 628.7 102.866 628.256 103.197C627.092 104.059 625.788 104.815 624.432 105.319C614.784 108.945 605.169 112.663 595.429 116.031C585.847 119.339 575.968 121.506 565.923 122.951C562.489 123.448 559.035 124.251 555.772 125.437C551.432 127.015 546.998 128.115 542.532 129.202C537.37 130.462 532.679 129.262 528.073 127.187C525.896 126.206 523.732 125.165 521.688 123.946C519.325 122.54 516.857 121.161 514.865 119.312C510.114 114.911 505.019 111 499.613 107.473C497.251 105.935 495.358 103.966 493.955 101.52C491.454 97.1585 492.129 92.6708 495.451 89.3896C498.045 86.8308 501.016 85.0941 504.582 84.6036C511.14 83.6954 517.671 82.7077 524.308 82.3564C548.791 81.077 573.288 81.8526 597.778 81.5278C610.112 81.3621 622.453 81.4284 634.787 81.4085C636.078 81.4085 637.381 81.4018 638.645 81.6272C639.459 81.7731 640.22 82.3166 642 83.1452Z" fill="#D43D27"/>
<path d="M299.398 144.734C301.489 145.894 302.462 146.351 303.349 146.941C304.434 147.67 305.446 148.552 305.334 150.03C305.221 151.541 304.05 152.191 302.826 152.655C301.106 153.311 299.379 153.967 297.605 154.458C290.121 156.533 283.021 159.648 275.987 162.81C269.204 165.86 262.065 167.557 255.037 169.698C249.538 171.368 243.854 171.733 238.177 172.303C230.799 173.039 223.467 172.687 216.135 171.912C207.553 171.004 199.48 168.551 192.77 162.91C185.895 157.129 183.03 149.612 184.796 140.703C186.06 134.326 190.249 130.468 196.456 128.718C199.711 127.797 202.874 127.83 206.256 128.407C213.329 129.607 220.483 130.322 227.609 131.204C231.811 131.721 236.046 132.026 240.221 132.709C243.365 133.219 246.422 133.146 249.558 132.795C258.346 131.794 267.16 131.317 276 131.993C281.876 132.444 287.746 132.901 293.615 133.425C299.862 133.988 306.108 134.273 312.368 133.61C314.75 133.358 317.146 133.279 319.534 133.153C321.069 133.067 322.419 133.544 323.63 134.512C325.146 135.732 325.258 137.753 323.604 138.635C321.85 139.57 319.931 140.332 317.999 140.763C314.585 141.512 311.091 141.863 307.663 142.546C305.327 143.01 303.058 143.752 299.398 144.734Z" fill="#D43D27"/>
<path d="M207.745 55.3108C209.902 54.9594 212.092 54.7473 214.203 54.2104C216.254 53.6867 218.134 53.8723 220.159 54.4026C222.991 55.145 225.896 55.8145 228.8 56.0068C239.633 56.7094 250.472 57.432 261.324 57.6971C270.925 57.9358 279.819 60.3951 288.341 64.6309C291.961 66.4273 295.693 67.9983 299.372 69.6621C299.875 69.8875 300.398 70.0798 300.887 70.3383C303.905 71.969 304.216 74.4946 301.318 76.2644C297.341 78.6972 293.979 81.8194 290.591 84.9151C285.112 89.9264 278.396 92.3128 271.468 94.3081C266.822 95.6471 262.058 95.846 257.267 95.7001C254.111 95.6073 251.094 96.1443 248.03 96.9596C244.496 97.9009 240.758 98.9615 237.198 98.7096C230.792 98.2589 224.48 96.8602 218.901 93.2077C216.764 91.809 214.481 90.5628 212.119 89.5884C203.212 85.916 198.282 79.0287 195.946 69.9604C195.291 67.415 195.291 64.8761 195.92 62.3042C197.052 57.6772 200.221 55.0257 204.926 54.8733C205.846 54.8467 206.765 54.8666 207.685 54.8666C207.705 55.0323 207.725 55.1716 207.745 55.3108Z" fill="#D43D27"/>
</svg>
