<svg width="44" height="93" viewBox="0 0 44 93" fill="none" xmlns="http://www.w3.org/2000/svg">
<path d="M9.65912 9.5482C10.2247 9.34511 10.7375 9.29096 11.1923 9.4822C11.6042 9.65595 11.9644 9.67908 12.3832 9.51322C12.9285 9.29716 13.5011 9.45963 14.051 9.53466C14.4565 9.59051 14.8573 9.73549 15.2396 9.88837C16.6405 10.4497 18.0241 11.0544 19.4337 11.5932C19.9123 11.776 20.3369 11.9886 20.7064 12.335C20.9158 12.5308 21.1792 12.6718 21.3921 12.819C21.6305 12.7739 21.6247 12.6165 21.6462 12.4783C21.6949 12.1641 21.7309 11.8482 21.79 11.5356C21.8434 11.2524 21.8857 10.9591 21.9942 10.694C22.5024 9.44948 22.84 8.17059 22.9032 6.82739C22.9525 5.78206 23.3087 4.78862 23.47 3.7619C23.4787 3.70549 23.4938 3.64512 23.5245 3.59774C23.8383 3.11371 23.8366 2.63928 23.5732 2.12197C23.4816 1.94145 23.4903 1.63456 23.5883 1.45516C23.883 0.916419 24.2624 0.440856 24.9161 0.250179C25.7677 0.00196135 26.5746 0.138481 27.3346 0.522091C28.3114 1.01458 29.2135 1.59958 30.0117 2.36567C30.9427 3.25982 31.8836 4.13818 32.7341 5.10792C33.0003 5.41142 33.3449 5.65456 33.675 5.89827C34.1477 6.24746 34.6286 6.58876 35.1269 6.90299C36.4165 7.71533 37.3162 9.72477 36.478 11.6152C36.3498 11.9046 36.21 12.2098 35.9977 12.4399C35.2232 13.2782 34.4285 14.0991 33.6181 14.9046C32.8501 15.6679 31.984 16.3426 31.4161 17.2808C31.3558 17.38 31.2873 17.4754 31.2305 17.5758C30.8006 18.3312 30.4479 19.1305 29.8684 19.8007C29.7576 19.9288 29.688 20.0907 29.5998 20.2368C30.4653 21.2714 31.2206 22.3399 31.7769 23.524C32.4121 24.8768 32.5177 26.2482 31.8222 27.6281C31.6969 27.8774 31.5663 28.0799 31.2769 28.1482C30.9073 28.2345 30.6823 28.485 30.4497 28.7642C29.9833 29.3238 29.4676 29.844 28.9791 30.3867C28.8266 30.5565 28.6972 30.7455 28.5266 30.9655C27.8398 30.5802 27.2174 30.1633 26.7075 29.5946C26.0636 28.8765 25.411 28.1657 24.7282 27.4143C24.5687 27.5299 24.4086 27.6066 24.3041 27.729C23.9631 28.129 23.6452 28.5476 23.3133 28.9555C22.8185 29.5647 22.3249 30.1588 21.7094 30.68C20.9077 31.3587 20.265 32.2105 19.5213 32.9574C18.4348 34.0496 17.176 34.9127 15.7083 35.456C15.3127 35.6026 14.9432 35.7769 14.6195 36.0347C13.9976 36.5289 13.3764 37.0242 12.7713 37.5376C12.1448 38.0701 11.5456 38.6337 10.9191 39.1668C10.6749 39.3744 10.4121 39.5877 10.1186 39.7084C9.5837 39.9284 9.15154 40.2646 8.73561 40.6409C8.49951 40.8547 8.27675 41.0978 7.90027 41.1785C7.51683 41.0369 7.41648 40.6516 7.203 40.3238C7.41358 39.74 7.83356 39.2841 8.21411 38.8176C9.04828 37.7948 9.72699 36.6767 10.4237 35.5676C10.7491 35.0498 11.0937 34.5432 11.429 34.031C11.7074 33.6062 11.6848 33.5029 11.2538 33.1927C11.161 33.1255 11.0734 33.0516 11.0113 33.0031C10.9434 32.7549 11.1001 32.6477 11.2126 32.5202C11.4058 32.3013 11.5856 32.0689 11.7962 31.8675C12.4621 31.2312 12.9071 30.4431 13.388 29.6821C13.6351 29.2906 13.8219 28.8624 14.0284 28.4472C14.1061 28.2915 14.1438 28.1155 14.2314 27.9665C15.2338 26.2589 16.0413 24.4554 16.9822 22.7173C17.3686 22.0037 17.7015 21.2624 18.0577 20.5335C18.096 20.4551 18.1117 20.362 18.1656 20.2966C18.7915 19.535 19.0131 18.5924 19.4087 17.727C19.6251 17.2531 19.5665 16.8921 19.1825 16.5666C18.8025 16.2444 18.4075 15.9387 18.0299 15.6137C17.7874 15.4045 17.5629 15.176 17.3349 14.9509C17.0014 14.6214 16.6968 14.2593 16.3366 13.9603C15.2976 13.0988 14.279 12.2092 13.0863 11.5401C12.91 11.4414 12.7226 11.3156 12.6135 11.1554C12.1553 10.4824 11.4539 10.197 10.7097 9.97355C10.375 9.87258 10.0037 9.86524 9.65912 9.5482Z" fill="#529DA9"/>
<path d="M12.3174 56.2859C12.3348 56.2566 12.391 56.1866 12.4212 56.1071C13.0013 54.5597 13.5802 53.0117 14.1528 51.462C14.2224 51.2736 14.2699 51.0739 14.2972 50.8753C14.3111 50.7743 14.256 50.6643 14.223 50.5182C14.0443 50.5594 13.8969 50.5724 13.7676 50.6265C13.3302 50.8087 12.9032 51.0147 12.4647 51.194C11.5296 51.576 10.5603 51.8372 9.55263 51.9652C8.18071 52.1395 7.12088 51.5935 6.26408 50.6051C5.95837 50.2525 5.68399 49.8728 5.41251 49.4938C4.85214 48.7107 4.28016 47.9339 3.75924 47.1267C3.49414 46.7154 3.32417 46.2449 3.11882 45.7981C2.9999 45.5392 3.06835 45.2994 3.19597 45.0523C3.58289 44.3066 4.17169 43.8304 5.02558 43.673C5.70139 43.5484 6.36908 43.4931 7.06113 43.6082C8.70627 43.8818 10.3729 43.9461 12.0377 44.0076C12.4543 44.0228 12.8713 44.02 13.2867 44.0465C13.9793 44.0905 14.6319 44.2366 15.19 44.689C15.52 44.9564 15.7208 44.9609 15.954 44.6518C16.5468 43.8671 17.3659 43.7712 18.2592 43.8316C18.7929 43.8677 19.3266 43.9128 19.8609 43.9404C20.4804 43.972 20.9242 44.2676 21.245 44.7663C21.3082 44.8645 21.3883 44.9525 21.4445 45.054C21.6476 45.4202 21.9347 45.7039 22.2967 45.9228C22.5252 46.061 22.7381 46.2184 22.8107 46.4864C22.7985 46.549 22.8083 46.6251 22.7741 46.6573C22.3199 47.086 22.205 47.6519 22.0745 48.2188C21.8204 49.3194 21.4724 50.3907 21.0321 51.4383C20.6162 52.4278 20.2606 53.4415 19.8864 54.4474C19.8394 54.5732 19.8446 54.7171 19.8162 54.9184C19.9862 54.9021 20.1016 54.9128 20.2008 54.8778C21.1789 54.5331 22.1528 54.1766 23.132 53.8353C23.2591 53.7913 23.4696 53.7524 23.5393 53.8161C23.7591 54.0175 23.9645 53.9684 24.1936 53.8771C24.4686 53.7671 24.7435 53.6559 25.0214 53.5516C27.9601 52.4481 30.8937 51.3323 33.8411 50.2514C34.8969 49.8644 35.9851 49.5609 37.0595 49.2218C37.1703 49.1869 37.2869 49.1598 37.4023 49.1513C37.4418 49.1485 37.5067 49.2072 37.523 49.2506C37.5392 49.2952 37.5299 49.3837 37.4986 49.4046C37.2544 49.566 37.0113 49.7318 36.7509 49.865C36.2793 50.1058 35.796 50.3258 35.1498 50.6344C35.4584 50.6344 35.5907 50.6615 35.7038 50.6282C35.8958 50.5712 36.0698 50.4257 36.3407 50.604C36.1725 50.7343 36.035 50.8719 35.8703 50.9633C35.0959 51.3932 34.3127 51.8095 33.5343 52.2326C33.3788 52.3172 33.2117 52.3923 33.0818 52.5062C32.9803 52.5954 32.848 52.7539 32.8683 52.8549C32.9553 53.2904 32.6867 53.3891 32.3503 53.5109C31.5161 53.8133 30.6819 54.123 29.875 54.4858C29.4765 54.6646 29.1209 54.9478 28.7752 55.2191C27.8041 55.9801 26.7564 56.6413 25.8231 57.4548C25.1624 58.0308 24.3908 58.4849 23.6924 59.0225C22.1592 60.2032 20.5338 61.2835 19.1543 62.6358C18.3793 63.3957 17.5707 64.1149 16.7382 64.806C15.9493 65.461 15.2074 66.1701 14.3425 66.7427C13.6086 67.2289 12.9288 67.7925 12.2269 68.3245C11.6543 68.7583 10.9901 69.0612 10.3114 69.2265C9.14889 69.5103 7.99682 69.3427 6.99326 68.6562C5.72982 67.7914 4.5122 66.8696 3.33403 65.8925C2.62922 65.3081 1.97836 64.6774 1.3681 64.0128C0.794386 63.3883 0.361057 62.6617 0.189929 61.8082C0.000818841 60.8667 0.232856 60.0436 0.781044 59.264C1.50094 58.2406 3.00338 57.9157 4.04175 58.1994C4.46986 58.3162 4.8997 58.4307 5.33593 58.5131C5.94039 58.6271 6.50888 58.5086 7.06519 58.244C7.91793 57.839 8.77182 57.4266 9.65589 57.0966C10.5086 56.7784 11.4008 56.5606 12.3174 56.2859Z" fill="#529DA9"/>
<path d="M23.4656 87.6741C23.262 88.526 23.4389 89.3259 23.1924 90.0559C22.9464 90.1653 22.8055 90.0547 22.7521 89.877C22.661 89.5735 22.5995 89.2604 22.5433 88.9485C22.2045 87.0744 21.8454 85.2032 21.5426 83.323C21.3135 81.8991 21.1087 80.4696 21.0571 79.0237C21.0211 78.0145 20.9422 77.0064 20.8778 75.9983C20.8668 75.8262 20.8488 75.6513 20.8042 75.4855C20.5327 74.474 20.5159 73.4298 20.4022 72.3997C20.3024 71.4943 20.5483 70.6232 20.879 69.7793C21.0693 69.2942 21.2444 68.8017 21.462 68.3284C21.6308 67.9611 21.8245 67.5972 22.0612 67.2689C22.78 66.2738 23.4082 65.2296 23.9541 64.1369C24.044 63.9563 24.1652 63.7888 24.287 63.6252C24.5243 63.3053 24.8654 63.1384 25.2453 63.0306C25.5012 62.9584 25.7216 63.0165 25.8922 63.2055C26.2895 63.6466 26.5917 64.1403 26.7008 64.7264C26.7432 64.9537 26.7791 65.1839 26.7936 65.4141C26.8975 67.1166 26.9758 68.8186 26.8017 70.5228C26.7495 71.0373 26.7785 71.5591 26.7548 72.0765C26.6846 73.5776 26.6213 75.0799 26.5285 76.5799C26.3823 78.9459 26.2019 81.3096 26.0592 83.6761C25.9426 85.6088 25.8649 87.5444 25.7605 89.4776C25.7123 90.3724 25.6421 91.2659 25.5795 92.1601C25.5714 92.2752 25.5632 92.3948 25.5232 92.5008C25.4959 92.5719 25.3915 92.683 25.3579 92.6718C25.2616 92.6402 25.1583 92.5708 25.1061 92.4878C25.0464 92.3936 25.029 92.2701 25.0104 92.1567C24.9321 91.6721 24.8584 91.187 24.7859 90.7018C24.7302 90.3295 24.6931 89.9634 24.2923 89.74C24.167 89.67 24.091 89.4607 24.0567 89.3022C23.9842 88.9637 23.9633 88.6157 23.9024 88.2743C23.8624 88.0577 23.8189 87.8276 23.4656 87.6741Z" fill="#529DA9"/>
<path d="M43.8747 43.0254C43.6542 43.3571 43.352 43.4525 43.0248 43.5083C42.4412 43.6082 41.8559 43.7024 41.2753 43.818C41.0531 43.8626 40.8425 43.9602 40.56 44.0561C40.8123 44.3094 41.0073 44.5046 41.2422 44.7398C41.1018 44.8792 41.0067 45.0371 40.8663 45.1009C40.5722 45.234 40.2572 45.3282 39.9451 45.4185C38.7461 45.7649 37.6317 46.3205 36.464 46.7408C35.0984 47.2327 33.6975 47.5921 32.238 47.7359C30.8951 47.8685 29.5655 47.7997 28.2429 47.5915C27.4476 47.4663 26.6993 47.1887 26.0165 46.7532C25.0762 46.1535 24.5692 45.2966 24.51 44.2293C24.4491 43.1304 24.9799 42.3835 25.9881 41.9953C26.4498 41.8176 26.9377 41.7629 27.4679 41.8673C28.6292 42.0952 29.8138 42.2024 30.9896 42.3502C32.3273 42.5183 33.6459 42.5279 34.9795 42.3902C36.4663 42.2368 37.9432 42.4534 39.4201 42.5696C40.5786 42.6604 41.7318 42.7298 42.8833 42.5459C43.3131 42.4771 43.6432 42.5612 43.8747 43.0254Z" fill="#529DA9"/>
<path d="M40.9776 34.4433C40.8627 34.6086 40.8157 34.7225 40.7299 34.7908C40.1591 35.2483 39.5737 35.6889 39.0041 36.1481C37.9309 37.014 36.6599 37.3999 35.3071 37.4704C34.3523 37.5201 33.4195 37.6408 32.485 37.8151C31.3851 38.0204 30.37 37.7237 29.3983 37.2481C29.0288 37.0671 28.6836 36.8363 28.3072 36.6727C27.0321 36.1188 26.3406 35.1327 26.0784 33.8402C25.9282 33.1001 26.2734 32.4299 26.901 32.189C27.1139 32.1072 27.3622 32.0841 27.5942 32.0858C27.9829 32.0886 28.3588 32.0694 28.7411 31.9752C28.9545 31.9222 29.2214 31.9436 29.4285 32.0209C29.827 32.1704 30.2331 32.1941 30.6484 32.2341C32.1294 32.3774 33.6139 32.4073 35.0995 32.4327C36.2753 32.453 37.3955 32.7035 38.4617 33.1836C39.1624 33.4989 39.8649 33.8098 40.5616 34.1336C40.6898 34.1928 40.7931 34.3034 40.9776 34.4433Z" fill="#529DA9"/>
</svg>
