<svg width="328" height="77" viewBox="0 0 328 77" fill="none" preserveAspectRatio="none" xmlns="http://www.w3.org/2000/svg">
<g filter="url(#filter0_i)">
<path fill-rule="evenodd" clip-rule="evenodd" d="M327.13 0C324.3 2.04665 324.126 5.45781 326.281 9.72118C327.487 12.1109 327.569 14.0096 326.488 16.1046C324.878 19.2254 324.922 22.0352 326.974 25.0142C327.787 26.1872 328.055 27.9986 327.984 29.488C327.808 33.0883 327.529 36.6822 327.25 40.2764C327.079 42.4775 326.908 44.6787 326.761 46.8815C326.74 47.1982 326.737 47.5129 326.734 47.8237C326.72 49.2054 326.706 50.5086 325.129 51.5464C324.157 52.1847 323.562 53.8597 323.377 55.1473C323.012 57.7075 322.821 60.2948 322.631 62.8824C322.566 63.7743 322.5 64.6663 322.427 65.5572C322.4 65.9009 322.378 66.452 322.564 66.572C324.433 67.7633 324.066 69.2209 323.682 70.7423C323.58 71.144 323.478 71.5501 323.415 71.957C323.325 72.5538 323.659 73.2177 323.991 73.8795C324.142 74.1797 324.292 74.4794 324.403 74.7722L324.246 74.8757C323.412 75.4245 322.767 75.8496 321.903 76.4199C322.277 76.6248 322.626 76.8158 322.962 77H9.50422C9.31552 76.1088 9.12959 75.2168 8.94364 74.3247C8.29449 71.2103 7.64512 68.0949 6.87734 65.0116C6.5161 63.5635 5.76154 62.215 4.9583 60.7795C4.57215 60.0894 4.17474 59.3792 3.80437 58.6282C6.9289 56.1517 5.94759 53.0337 5.03337 50.1288C4.86799 49.6033 4.70481 49.0848 4.56852 48.5783C3.89125 46.0616 2.65872 43.6951 1.46327 41.3997C0.953452 40.4208 0.450382 39.4549 0 38.4958C0.387914 38.146 0.749966 37.8332 1.08698 37.5419C1.95919 36.7882 2.66371 36.1794 3.21488 35.4514C3.31501 35.3227 2.92549 34.817 2.44999 34.1996C2.19972 33.8747 1.92563 33.5188 1.68659 33.1708C4.19736 31.9978 5.39271 30.0663 4.42115 27.071C3.82074 25.216 3.7607 23.3883 5.59466 21.7843C7.43954 20.1693 7.00288 18.3579 5.33267 17.605C5.85121 16.5311 6.31146 15.5808 6.80185 14.5683C7.17349 13.8009 7.56244 12.9978 8.00719 12.0781C7.17789 12.1208 6.53065 12.1531 5.95517 12.1819C5.20499 12.2194 4.57678 12.2508 3.8262 12.2909C3.91201 11.9854 3.96737 11.6499 4.02067 11.3271C4.1301 10.6641 4.23083 10.0538 4.56852 9.86304C8.02356 7.89891 8.16548 5.28549 6.77909 1.90282C6.5132 1.25591 6.40255 0.617188 6.42988 0H327.13ZM324.228 34.8567L324.949 34.7585C325.129 35.9663 325.308 37.1687 325.488 38.3711L325.489 38.3812C325.326 38.403 325.163 38.4235 325.001 38.4439C324.838 38.4644 324.676 38.4848 324.512 38.5067C324.414 37.29 324.321 36.0733 324.228 34.8567Z" fill="white"/>
</g>
<defs>
<filter id="filter0_i" x="0" y="0" width="327.995" height="77" filterUnits="userSpaceOnUse" color-interpolation-filters="sRGB">
<feFlood flood-opacity="0" result="BackgroundImageFix"/>
<feBlend mode="normal" in="SourceGraphic" in2="BackgroundImageFix" result="shape"/>
<feColorMatrix in="SourceAlpha" type="matrix" values="0 0 0 0 0 0 0 0 0 0 0 0 0 0 0 0 0 0 127 0" result="hardAlpha"/>
<feOffset/>
<feGaussianBlur stdDeviation="2"/>
<feComposite in2="hardAlpha" operator="arithmetic" k2="-1" k3="1"/>
<feColorMatrix type="matrix" values="0 0 0 0 0 0 0 0 0 0 0 0 0 0 0 0 0 0 0.5 0"/>
<feBlend mode="normal" in2="shape" result="effect1_innerShadow"/>
</filter>
</defs>
</svg>
